<?xml version="1.0" encoding="UTF-8"?>
<svg id="Layer_1" data-name="Layer 1" xmlns="http://www.w3.org/2000/svg" version="1.1" viewBox="0 0 565.98 130.77">
  <defs>
    <style>
      .cls-1, .cls-2, .cls-3, .cls-4, .cls-5 {
        stroke-width: 0px;
      }

      .cls-1, .cls-4 {
        fill: #8dc63f;
      }

      .cls-2 {
        fill: #373390;
      }

      .cls-3, .cls-4 {
        fill-rule: evenodd;
      }

      .cls-3, .cls-5 {
        fill: #fff;
      }
    </style>
  </defs>
  <rect class="cls-2" width="565.98" height="130.77"/>
  <path class="cls-3" d="M302.33,84.71v-15.04c0-10.04-7.72-18.26-17.16-18.26h0c-9.44,0-17.16,8.22-17.16,18.26v13.9c0,.09-.03.16-.09.23l-6.6,7.02c-.09.09-.21.12-.33.07-.11-.05-.19-.16-.19-.29,0-7.89,0-13.03,0-20.92,0-14.26,10.96-25.92,24.36-25.92h0c13.4,0,24.36,11.67,24.36,25.92,0,8.27,0,13.79,0,22.06,0,.13-.07.24-.19.3-.11.05-.24.02-.33-.07l-6.6-7.02c-.06-.06-.09-.14-.09-.23"/>
  <path class="cls-5" d="M41.49,80.59c0,1.22.56,1.79,1.79,1.79h15.79c2.16,0,2.54.47,2.54,2.26v5.17c0,1.69-.38,2.26-2.54,2.26h-19.92c-3.57,0-5.92-.75-7.42-2.26s-2.07-3.38-2.07-6.77v-49.43c0-1.97.47-2.35,2.54-2.35h6.77c2.07,0,2.54.38,2.54,2.35v46.99Z"/>
  <path class="cls-5" d="M105.21,71.66c0,1.97-.56,2.73-2.54,2.73h-23.49c.09,3.76.75,6.11,2.35,7.52,1.22,1.13,3.76,1.88,8.27,1.88,3.1,0,7.52-.85,10.15-1.97,1.13-.47,2.07-.47,2.63,1.5l1.22,4.51c.38,1.41.09,1.97-1.69,2.63-3.95,1.5-8.83,2.44-13.63,2.44-7.61,0-12.59-1.5-15.79-4.79-3.67-3.76-4.89-9.21-4.89-17.86v-2.54c0-14.75,4.89-22.55,19.36-22.55,6.39,0,10.24,1.5,13.25,4.23,3.1,2.82,4.79,6.86,4.79,15.88v6.39ZM81.43,55.97c-1.69,1.79-2.44,5.07-2.44,9.59h13.81c.94,0,1.22-.38,1.22-1.32,0-4.13-.47-6.86-1.79-8.36-1.13-1.22-2.63-1.79-5.45-1.79-2.44,0-4.13.56-5.36,1.88Z"/>
  <path class="cls-5" d="M140.45,88.11c-1.79,3.1-4.7,4.79-10.34,4.79h-3.48c-4.89,0-7.8-.85-10.34-3.01-2.73-2.35-4.04-6.01-4.04-10.53v-2.16c0-5.07,1.22-8.64,3.95-10.9,2.91-2.44,7.33-3.48,13.72-3.48h3.38c1.69,0,3.67.09,5.26.19v-2.54c0-2.44-.47-3.85-1.6-4.79-1.32-1.03-3.1-1.32-6.48-1.32s-7.8.66-11.56,1.79c-1.5.47-2.07-.19-2.35-1.5l-.85-4.42c-.38-1.6-.19-2.35,1.41-2.82,3.48-1.13,9.21-2.26,14.19-2.26,6.67,0,10.34.85,13.53,3.01,3.38,2.35,4.89,5.73,4.89,12.4v29.7c0,1.22-.66,1.79-1.97,1.79h-4.32c-1.41,0-1.97-.47-2.26-1.69l-.56-2.26h-.19ZM138.57,71.94c-1.6-.09-3.57-.19-5.45-.19h-3.29c-2.16,0-3.95.28-4.89,1.13-1.03.85-1.41,2.44-1.41,4.6v1.13c0,2.07.47,3.38,1.41,4.23.75.66,2.07,1.13,4.13,1.13h3.38c4.32,0,6.11-1.97,6.11-6.3v-5.73Z"/>
  <path class="cls-5" d="M169.2,52.11h.19c2.91-4.23,6.11-6.11,12.5-6.11h1.32c1.97,0,2.63.38,2.63,2.26v4.98c0,1.6-.56,2.16-2.63,2.16h-1.69c-4.13,0-6.39.94-7.61,2.35-1.22,1.41-2.16,3.1-2.16,7.99v23.96c0,1.88-.56,2.35-2.63,2.35h-5.92c-2.07,0-2.63-.47-2.63-2.35v-41.54c0-1.6.66-2.16,2.26-2.16h3.29c1.6,0,2.26.28,2.44,1.69l.66,4.42Z"/>
  <path class="cls-5" d="M231.5,89.7c0,1.88-.56,2.35-2.63,2.35h-5.92c-2.07,0-2.63-.47-2.63-2.35v-26.22c0-3.76-.47-5.83-1.97-7.33-1.41-1.41-3.19-1.97-6.2-1.97-2.73,0-4.79.56-6.01,1.69-1.22,1.13-1.97,2.63-1.97,6.48v27.35c0,1.88-.56,2.35-2.63,2.35h-5.92c-2.07,0-2.63-.47-2.63-2.35v-41.54c0-1.6.66-2.16,2.26-2.16h3.48c1.6,0,2.16.28,2.44,1.69l.47,2.26h.28c2.63-2.72,6.3-4.79,12.78-4.79s11.28,1.79,14.28,6.3c2.07,3.19,2.54,7.8,2.54,12.59v25.65Z"/>
  <path class="cls-5" d="M253.77,89.7c0,1.88-.56,2.35-2.63,2.35h-5.92c-2.07,0-2.63-.47-2.63-2.35v-41.35c0-1.88.56-2.35,2.63-2.35h5.92c2.07,0,2.63.47,2.63,2.35v41.35Z"/>
  <path class="cls-5" d="M333.74,45.16c2.16-5.83,6.2-8.46,13.25-8.46h3.29c1.41,0,1.88.47,1.88,2.07v3.85c0,1.69-.47,1.97-1.88,1.97h-3.85c-3.01,0-3.76.38-4.51,1.41,8.27,2.44,10.34,8.93,10.34,18.42v2.91c0,7.05-2.16,11.75-5.64,14.57,4.89,3.1,7.61,7.33,7.61,12.4v.85c0,5.07-1.6,7.89-4.32,10.24-3.29,2.82-8.27,4.23-16.45,4.23-5.54,0-12.12-1.31-17.95-3.48-1.5-.56-2.07-1.5-1.6-3.01l1.32-4.23c.47-1.5,1.5-1.79,2.63-1.32,4.42,1.88,10.05,3.29,14.94,3.29,3.95,0,6.67-.56,8.46-2.16,1.32-1.22,1.69-2.82,1.69-4.79v-.66c0-3.1-1.32-5.55-4.32-7.33-1.41.28-3.48.56-6.11.56-6.67,0-10.62-1.22-14-3.85-4.14-3.19-5.73-8.36-5.73-15.32v-2.91c0-7.89,1.79-12.4,5.92-15.6,3.38-2.63,8.08-3.67,13.81-3.67h1.22ZM324.16,66.59c0,4.42.38,7.05,2.07,9.12,1.03,1.32,3.01,1.97,6.3,1.97s5.07-.47,6.39-1.97c1.6-1.97,1.97-5.54,1.97-9.12v-1.69c0-3.85-.19-7.33-1.97-9.02-1.32-1.22-3.48-1.88-6.39-1.88s-5.26.66-6.3,1.88c-1.79,1.97-2.07,5.17-2.07,9.02v1.69Z"/>
  <path class="cls-1" d="M365.51,33.18c0-1.97.47-2.35,2.54-2.35h5.64c2.44,0,3.48.47,4.6,2.26l23.4,38.72h.38v-38.62c0-1.97.47-2.35,2.54-2.35h5.92c2.07,0,2.54.38,2.54,2.35v56.1c0,1.97-.47,2.35-2.54,2.35h-5.64c-2.44,0-3.48-.47-4.6-2.26l-23.4-37.87h-.38v37.78c0,1.97-.47,2.35-2.54,2.35h-5.92c-2.07,0-2.54-.38-2.54-2.35v-56.1Z"/>
  <path class="cls-1" d="M457.89,50.28c3.48,3.95,4.79,9.87,4.79,16.92v2.82c0,7.24-1.32,12.97-4.79,16.92-3.1,3.48-7.99,5.54-14.94,5.54s-11.84-2.07-14.94-5.54c-3.48-3.95-4.79-9.68-4.79-16.92v-2.82c0-7.05,1.32-12.97,4.79-16.92,3.1-3.57,7.89-5.54,14.94-5.54s11.84,1.97,14.94,5.54ZM449.24,81.01c1.6-2.07,2.07-5.73,2.07-11.46v-1.97c0-5.73-.47-9.3-2.07-11.37-1.32-1.69-2.91-2.54-6.3-2.54s-4.98.85-6.3,2.54c-1.6,2.07-2.07,5.64-2.07,11.37v1.97c0,5.73.47,9.4,2.07,11.46,1.32,1.6,2.91,2.54,6.3,2.54s4.98-.94,6.3-2.54Z"/>
  <path class="cls-1" d="M519.44,89.19c-.56,1.88-1.79,2.44-3.95,2.44h-6.67c-2.16,0-3.38-.56-3.95-2.44-2.63-9.21-4.79-20.02-6.2-28.38h-.47c-1.41,8.36-3.67,19.26-6.2,28.38-.56,1.88-1.79,2.44-3.95,2.44h-6.67c-2.16,0-3.19-.56-3.95-2.44-2.63-8.83-7.24-27.63-9.96-41.44-.28-1.6.47-2.16,2.16-2.16h6.3c1.6,0,2.44.56,2.63,1.97,1.69,10.24,4.32,24.15,6.3,32.33h.28c2.07-8.46,4.42-19.64,6.39-29.32.47-2.26,1.13-2.72,3.95-2.72h5.92c2.82,0,3.48.47,3.95,2.72,1.97,9.68,4.32,20.86,6.39,29.32h.28c1.88-8.17,4.6-22.08,6.3-32.33.19-1.41,1.03-1.97,2.63-1.97h6.3c1.69,0,2.44.56,2.16,2.16-2.73,13.72-7.24,32.61-9.96,41.44Z"/>
  <path class="cls-4" d="M306.3,94.48c-.05,0-.11,0-.16,0-.71.03-1.33-.21-1.83-.72l-9.98-10.17c-.47-.48-.71-1.07-.71-1.75v-5.43s.03,0,.05,0l.08-1.93c.03-.67-.19-1.27-.64-1.78l-7.17-7.69c.1-.51.35-.96.75-1.33.67-.62,1.1-1.53,1.1-2.53,0-1.89-1.5-3.42-3.35-3.42s-3.35,1.53-3.35,3.42c0,1,.42,1.91,1.1,2.53.48.45.74,1.02.78,1.67-.45.5-.99,1.06-1.12,1.19l-5.81,5.55c-.49.47-.75,1.05-.78,1.72l.06,1.48v6.53c0,.68-.24,1.27-.71,1.75l-8.43,8.6c-.5.51-1.13.76-1.83.72-.05,0-.11,0-.16,0-1.85,0-3.35,1.53-3.35,3.42s1.5,3.42,3.35,3.42,3.35-1.53,3.35-3.42c0-.06,0-.11,0-.17-.03-.72.21-1.36.71-1.87l9.29-9.47c.47-.48.71-1.07.71-1.75l-.08-7.8v-.19c.03-.67.29-1.25.78-1.72l4.09-3.9.13,13.83c0,.68-.24,1.27-.71,1.75l-8.25,8.41c-.47.48-.71,1.07-.71,1.75v8.37c0,.72-.27,1.35-.8,1.83-.68.62-1.1,1.53-1.1,2.53,0,1.89,1.5,3.42,3.35,3.42s3.35-1.53,3.35-3.42c0-1-.42-1.91-1.1-2.53-.53-.49-.8-1.11-.8-1.83v-7.14c0-.68.24-1.27.71-1.75l8.25-8.41c.47-.48.72-1.07.71-1.75l-.14-15.69,4.21,4.93c.28.31.46.68.56,1.08,0,.07.03.13.03.2v8.04c0,.68.24,1.27.71,1.75l10.83,11.04c.5.51.74,1.15.71,1.87,0,.05,0,.11,0,.17,0,1.89,1.5,3.42,3.35,3.42s3.35-1.53,3.35-3.42-1.5-3.42-3.35-3.42Z"/>
</svg>